<?xml version="1.0" encoding="utf-8"?>
<!-- Generator: Adobe Illustrator 28.3.0, SVG Export Plug-In . SVG Version: 6.00 Build 0)  -->
<svg version="1.1" id="Layer_1" xmlns="http://www.w3.org/2000/svg" xmlns:xlink="http://www.w3.org/1999/xlink" x="0px" y="0px"
	 viewBox="0 0 512 512" style="enable-background:new 0 0 512 512;" xml:space="preserve">
<style type="text/css">
	.st0{fill:#FFFFFF;}
	.st1{fill:#1A313F;}
</style>
<g>
	<path class="st0" d="M239.8,107.4c8.1,4.1,16.4,8,25.1,12.1c0-13,0-25.6,0-38.1c0-1.9-0.6-2.9-2.4-3.7
		c-33-15.8-65.9-31.6-98.9-47.5c-4.3-2-8.5-4-13.1-6.2c0,1.5,0,2.6,0,3.7c0,154.8,0,309.6,0,464.5c0,0.4,0.1,0.8,0,1.2
		c-0.3,1.7,0.5,2.1,2.1,2.1c5.5-0.1,10.9-0.1,16.4,0c2.3,0.1,2.9-0.5,2.9-2.9c-0.1-79.9-0.1-159.8-0.1-239.7c0-22.9,0-45.8,0-68.7
		c0-1.6,0.4-2.8,1.4-3.9c13.4-15.7,26.7-31.5,40-47.2c6.9-8.1,13.9-16,20.5-24.4C236,105.9,237.2,106.2,239.8,107.4z"/>
	<path class="st0" d="M359.6,511.8h43.3C388.5,511.7,374.1,511.7,359.6,511.8z"/>
	<path class="st0" d="M438.5,509c0.1-72.4,0-144.8,0.2-217.2c0-3.3-1-4.9-4-6.2c-37-16.6-73.9-33.4-110.8-50.1
		c-0.7-0.3-1.3-0.8-2.4-0.5c0,1.1,0,2.3,0,3.4c0,90.1,0,180.3,0.1,270.4c0,1.7-0.2,2.6-1.3,2.9h30c-1.5-0.1-2.1-0.5-2.1-2.4
		c0.1-9.4,0.1-18.7,0-28.1c0-2,0.6-2.4,2.5-2.4c11.3,0.1,22.6,0,33.9,0c11,0,22,0.1,33,0c2.1,0,2.8,0.5,2.8,2.7
		c-0.1,9.2-0.1,18.3,0,27.5c0,1.7-0.3,2.5-1.9,2.6h21.3C438.8,511.4,438.5,510.7,438.5,509z M348.1,279.1c0-0.8,0.1-1.7,0.1-2.9
		c6.2,2.9,12.2,5.7,18.2,8.5c17.2,8,34.4,16,51.6,23.9c1.7,0.8,2.3,1.6,2.2,3.5c-0.1,7.9-0.1,15.8,0,23.7c0,1.9-0.2,2.5-2.4,1.8
		c-22.4-7-44.9-14-67.3-20.9c-2-0.6-2.5-1.4-2.5-3.4C348.2,301.9,348.1,290.5,348.1,279.1z M348.1,366c0-5.4,0.1-10.7,0-16.1
		c-0.1-2.2,0.3-2.8,2.7-2.2c21,5.7,42,11.3,63,16.9c6.5,1.8,6.5,1.8,6.5,8.6c0,5.8,0,11.7,0,17.5c0,1.2,0.2,2.3-1.7,2
		c-22.7-2.7-45.4-5.3-68.1-7.9c-1.9-0.2-2.4-0.8-2.3-2.6C348.2,376.9,348.1,371.5,348.1,366z M420.3,445.3c0,2.1-0.6,2.6-2.6,2.6
		c-11.2-0.1-22.4,0-33.6,0c-11,0-22-0.1-33,0c-2.2,0-3-0.4-3-2.8c0.2-9.4,0.1-18.9,0-28.3c0-2.3,0.6-2.6,2.8-2.4
		c22,1.9,44,3.8,66.1,5.5c2.5,0.2,3.5,0.7,3.4,3.5C420.1,430.7,420.2,438,420.3,445.3z"/>
	<path class="st0" d="M349.2,184.5c-12.6-6-25.1-12-37.6-18c-23.8-11.4-47.7-22.9-71.5-34.3c-3.5-1.7-3.5-1.7-3.5,2
		c0,118.7,0,237.5,0,356.2c0,1,0.1,2,0,2.9c-0.2,1.7,0.5,2.1,2.1,2.1c5.2-0.1,10.3-0.2,15.5,0c2.5,0.1,3.3-0.4,3.3-3.1
		c-0.1-72.8-0.1-145.5-0.1-218.3c0-1.8,0.5-3,1.7-4.4c20.2-21.1,40.3-42.3,60.3-63.5c1.8-1.9,3-1.8,5.2-0.9
		c8.5,4,17.1,7.8,26.2,11.9c0-10.5,0-20.5,0-30.6C350.7,185.5,350.1,185,349.2,184.5z"/>
	<path class="st1" d="M75.5,512c81-0.1,161.9-0.1,242.9,0c0.8,0,1.4-0.1,1.8-0.2H73.6C74.1,511.9,74.7,512,75.5,512z"/>
	<path class="st1" d="M441.5,512c7.9-0.1,15.8-0.1,23.7-0.1c3.4,0,6.8,0,10.2-0.1c0,0,0-0.1,0-0.1h-35.7
		C440.2,512,440.8,512,441.5,512z"/>
	<path class="st1" d="M475.7,501.4c0.1-6,0-6.1-6.1-6c-2.6,0.1-3.3-0.5-3.3-3.2c0.1-69.7,0.1-139.3,0.1-209c0-3.9,0-7.8,0-11.7
		c0-1.4-0.4-2.2-1.8-2.8c-29.7-13.4-59.4-26.8-89.1-40.2c-2.1-0.9-2.8-2-2.8-4.3c0.1-16.8,0-33.5,0.1-50.3c0-2-0.6-2.9-2.4-3.7
		c-27-12.9-54-25.9-81-38.8c-2-1-2.6-2.1-2.6-4.2c0.1-20,0-39.9,0.1-59.9c0-1.8-0.5-2.7-2.2-3.5C241.4,43,198,22.2,154.6,1.3
		c-4.1-2-4.1-2-7,1.4c-19.9,23.5-39.7,47-59.7,70.4c-1.3,1.5-1.8,3-1.8,5c0,137.5,0,275,0,412.4c0,1-0.1,2,0,2.9c0.2,1.6-0.5,2-2,2
		c-3.2-0.1-6.4,0.1-9.6-0.1c-2-0.1-2.4,0.6-2.4,2.5c0.1,3.6,0.2,7.2,0,10.8c-0.1,1.9,0.2,2.8,1.4,3.1h246.6c1-0.4,1.3-1.2,1.3-2.9
		c-0.1-90.1-0.1-180.3-0.1-270.4c0-1.2,0-2.3,0-3.4c1-0.3,1.7,0.2,2.4,0.5c36.9,16.7,73.9,33.5,110.8,50.1c3,1.3,4,2.9,4,6.2
		c-0.1,72.4-0.1,144.8-0.2,217.2c0,1.7,0.3,2.4,1.2,2.8h35.7C476,508.3,475.6,504.9,475.7,501.4z M233.8,108.6
		c-6.5,8.4-13.6,16.3-20.5,24.4c-13.3,15.7-26.7,31.5-40,47.2c-1,1.2-1.4,2.4-1.4,3.9c0,22.9,0,45.8,0,68.7
		c0,79.9,0,159.8,0.1,239.7c0,2.3-0.6,2.9-2.9,2.9c-5.5-0.2-10.9-0.1-16.4,0c-1.6,0-2.4-0.3-2.1-2.1c0.1-0.4,0-0.8,0-1.2
		c0-154.8,0-309.6,0-464.5c0-1.1,0-2.1,0-3.7c4.5,2.2,8.8,4.2,13.1,6.2c32.9,15.8,65.9,31.7,98.9,47.5c1.8,0.9,2.4,1.8,2.4,3.7
		c-0.1,12.5,0,25.1,0,38.1c-8.7-4.2-17-8-25.1-12.1C237.2,106.2,236,105.9,233.8,108.6z M350.7,217.2c-9.1-4.1-17.7-7.9-26.2-11.9
		c-2.1-1-3.4-1-5.2,0.9c-20,21.3-40.1,42.4-60.3,63.5c-1.3,1.3-1.7,2.6-1.7,4.4c0,72.8,0,145.5,0.1,218.3c0,2.7-0.8,3.2-3.3,3.1
		c-5.2-0.2-10.3-0.1-15.5,0c-1.7,0-2.3-0.4-2.1-2.1c0.1-1,0-1.9,0-2.9c0-118.7,0-237.5,0-356.2c0-3.7,0-3.7,3.5-2
		c23.8,11.5,47.7,22.9,71.5,34.3c12.5,6,25.1,12,37.6,18c1,0.5,1.5,0.9,1.5,2.1C350.7,196.7,350.7,206.7,350.7,217.2z"/>
	<path class="st1" d="M350.6,316.7c22.5,6.9,44.9,13.8,67.3,20.9c2.2,0.7,2.4,0.1,2.4-1.8c-0.1-7.9-0.1-15.8,0-23.7
		c0-1.8-0.6-2.7-2.2-3.5c-17.2-7.9-34.4-15.9-51.6-23.9c-6-2.8-11.9-5.6-18.2-8.5c-0.1,1.2-0.1,2.1-0.1,2.9c0,11.4,0,22.8-0.1,34.2
		C348.1,315.3,348.6,316.1,350.6,316.7z"/>
	<path class="st1" d="M417.8,511.8c0.2,0,0.4,0,0.6,0h-15.5C407.9,511.8,412.8,511.8,417.8,511.8z"/>
	<path class="st1" d="M350.6,511.8c3,0,6,0,9.1,0h-9.5C350.3,511.8,350.4,511.8,350.6,511.8z"/>
	<path class="st1" d="M420.3,509.2c-0.1-9.2-0.1-18.3,0-27.5c0-2.2-0.6-2.7-2.8-2.7c-11,0.1-22,0-33,0c-11.3,0-22.6,0-33.9,0
		c-1.9,0-2.5,0.4-2.5,2.4c0.1,9.4,0.1,18.7,0,28.1c0,1.8,0.6,2.3,2.1,2.4h9.5c14.4,0,28.9,0,43.3,0h15.5
		C420,511.6,420.3,510.9,420.3,509.2z"/>
	<path class="st1" d="M350.4,385c22.7,2.6,45.4,5.2,68.1,7.9c1.9,0.2,1.8-0.8,1.7-2c0-5.8,0-11.7,0-17.5c0-6.8,0-6.9-6.5-8.6
		c-21-5.7-42-11.2-63-16.9c-2.4-0.7-2.7,0-2.7,2.2c0.1,5.3,0,10.7,0,16.1c0,5.5,0.1,10.9,0,16.4C348,384.2,348.5,384.8,350.4,385z"
		/>
	<path class="st1" d="M416.9,419.9c-22-1.7-44-3.6-66.1-5.5c-2.2-0.2-2.8,0-2.8,2.4c0.1,9.4,0.1,18.9,0,28.3c0,2.4,0.8,2.8,3,2.8
		c11-0.1,22,0,33,0c11.2,0,22.4-0.1,33.6,0c2,0,2.6-0.5,2.6-2.6c-0.1-7.3-0.2-14.6,0-21.9C420.4,420.6,419.4,420.1,416.9,419.9z"/>
</g>
</svg>
