<?xml version="1.0" encoding="utf-8"?>
<!-- Generator: Adobe Illustrator 28.3.0, SVG Export Plug-In . SVG Version: 6.00 Build 0)  -->
<svg version="1.1" id="Layer_1" xmlns="http://www.w3.org/2000/svg" xmlns:xlink="http://www.w3.org/1999/xlink" x="0px" y="0px"
	 viewBox="0 0 2558 512" style="enable-background:new 0 0 2558 512;" xml:space="preserve">
<style type="text/css">
	.st0{fill:#FFFFFF;}
	.st1{fill:#1A313F;}
</style>
<g>
	<g>
		<path class="st0" d="M239.8,107.4c8.1,4.1,16.4,8,25.1,12.1c0-13,0-25.6,0-38.1c0-1.9-0.6-2.9-2.4-3.7
			c-33-15.8-65.9-31.6-98.9-47.5c-4.3-2-8.5-4-13.1-6.2c0,1.5,0,2.6,0,3.7c0,154.8,0,309.6,0,464.5c0,0.4,0.1,0.8,0,1.2
			c-0.3,1.7,0.5,2.1,2.1,2.1c5.5-0.1,10.9-0.1,16.4,0c2.3,0.1,2.9-0.5,2.9-2.9c-0.1-79.9-0.1-159.8-0.1-239.7c0-22.9,0-45.8,0-68.7
			c0-1.6,0.4-2.8,1.4-3.9c13.4-15.7,26.7-31.5,40-47.2c6.9-8.1,13.9-16,20.5-24.4C236,105.9,237.2,106.2,239.8,107.4z"/>
		<path class="st0" d="M359.6,511.8h43.3C388.5,511.7,374.1,511.7,359.6,511.8z"/>
		<path class="st0" d="M438.5,509c0.1-72.4,0-144.8,0.2-217.2c0-3.3-1-4.9-4-6.2c-37-16.6-73.9-33.4-110.8-50.1
			c-0.7-0.3-1.3-0.8-2.4-0.5c0,1.1,0,2.3,0,3.4c0,90.1,0,180.3,0.1,270.4c0,1.7-0.2,2.6-1.3,2.9h30c-1.5-0.1-2.1-0.5-2.1-2.4
			c0.1-9.4,0.1-18.7,0-28.1c0-2,0.6-2.4,2.5-2.4c11.3,0.1,22.6,0,33.9,0c11,0,22,0.1,33,0c2.1,0,2.8,0.5,2.8,2.7
			c-0.1,9.2-0.1,18.3,0,27.5c0,1.7-0.3,2.5-1.9,2.6h21.3C438.8,511.4,438.5,510.7,438.5,509z M348.1,279.1c0-0.8,0.1-1.7,0.1-2.9
			c6.2,2.9,12.2,5.7,18.2,8.5c17.2,8,34.4,16,51.6,23.9c1.7,0.8,2.3,1.6,2.2,3.5c-0.1,7.9-0.1,15.8,0,23.7c0,1.9-0.2,2.5-2.4,1.8
			c-22.4-7-44.9-14-67.3-20.9c-2-0.6-2.5-1.4-2.5-3.4C348.2,301.9,348.1,290.5,348.1,279.1z M348.1,366c0-5.4,0.1-10.7,0-16.1
			c-0.1-2.2,0.3-2.8,2.7-2.2c21,5.7,42,11.3,63,16.9c6.5,1.8,6.5,1.8,6.5,8.6c0,5.8,0,11.7,0,17.5c0,1.2,0.2,2.3-1.7,2
			c-22.7-2.7-45.4-5.3-68.1-7.9c-1.9-0.2-2.4-0.8-2.3-2.6C348.2,376.9,348.1,371.5,348.1,366z M420.3,445.3c0,2.1-0.6,2.6-2.6,2.6
			c-11.2-0.1-22.4,0-33.6,0c-11,0-22-0.1-33,0c-2.2,0-3-0.4-3-2.8c0.2-9.4,0.1-18.9,0-28.3c0-2.3,0.6-2.6,2.8-2.4
			c22,1.9,44,3.8,66.1,5.5c2.5,0.2,3.5,0.7,3.4,3.5C420.1,430.7,420.2,438,420.3,445.3z"/>
		<path class="st0" d="M349.2,184.5c-12.6-6-25.1-12-37.6-18c-23.8-11.4-47.7-22.9-71.5-34.3c-3.5-1.7-3.5-1.7-3.5,2
			c0,118.7,0,237.5,0,356.2c0,1,0.1,2,0,2.9c-0.2,1.7,0.5,2.1,2.1,2.1c5.2-0.1,10.3-0.2,15.5,0c2.5,0.1,3.3-0.4,3.3-3.1
			c-0.1-72.8-0.1-145.5-0.1-218.3c0-1.8,0.5-3,1.7-4.4c20.2-21.1,40.3-42.3,60.3-63.5c1.8-1.9,3-1.8,5.2-0.9
			c8.5,4,17.1,7.8,26.2,11.9c0-10.5,0-20.5,0-30.6C350.7,185.5,350.1,185,349.2,184.5z"/>
		<path class="st1" d="M75.5,512c81-0.1,161.9-0.1,242.9,0c0.8,0,1.4-0.1,1.8-0.2H73.6C74.1,511.9,74.7,512,75.5,512z"/>
		<path class="st1" d="M441.5,512c7.9-0.1,15.8-0.1,23.7-0.1c3.4,0,6.8,0,10.2-0.1c0,0,0-0.1,0-0.1h-35.7
			C440.2,512,440.8,512,441.5,512z"/>
		<path class="st1" d="M475.7,501.4c0.1-6,0-6.1-6.1-6c-2.6,0.1-3.3-0.5-3.3-3.2c0.1-69.7,0.1-139.3,0.1-209c0-3.9,0-7.8,0-11.7
			c0-1.4-0.4-2.2-1.8-2.8c-29.7-13.4-59.4-26.8-89.1-40.2c-2.1-0.9-2.8-2-2.8-4.3c0.1-16.8,0-33.5,0.1-50.3c0-2-0.6-2.9-2.4-3.7
			c-27-12.9-54-25.9-81-38.8c-2-1-2.6-2.1-2.6-4.2c0.1-20,0-39.9,0.1-59.9c0-1.8-0.5-2.7-2.2-3.5C241.4,43,198,22.2,154.6,1.3
			c-4.1-2-4.1-2-7,1.4c-19.9,23.5-39.7,47-59.7,70.4c-1.3,1.5-1.8,3-1.8,5c0,137.5,0,275,0,412.4c0,1-0.1,2,0,2.9c0.2,1.6-0.5,2-2,2
			c-3.2-0.1-6.4,0.1-9.6-0.1c-2-0.1-2.4,0.6-2.4,2.5c0.1,3.6,0.2,7.2,0,10.8c-0.1,1.9,0.2,2.8,1.4,3.1h246.6c1-0.4,1.3-1.2,1.3-2.9
			c-0.1-90.1-0.1-180.3-0.1-270.4c0-1.2,0-2.3,0-3.4c1-0.3,1.7,0.2,2.4,0.5c36.9,16.7,73.9,33.5,110.8,50.1c3,1.3,4,2.9,4,6.2
			c-0.1,72.4-0.1,144.8-0.2,217.2c0,1.7,0.3,2.4,1.2,2.8h35.7C476,508.3,475.6,504.9,475.7,501.4z M233.8,108.6
			c-6.5,8.4-13.6,16.3-20.5,24.4c-13.3,15.7-26.7,31.5-40,47.2c-1,1.2-1.4,2.4-1.4,3.9c0,22.9,0,45.8,0,68.7
			c0,79.9,0,159.8,0.1,239.7c0,2.3-0.6,2.9-2.9,2.9c-5.5-0.2-10.9-0.1-16.4,0c-1.6,0-2.4-0.3-2.1-2.1c0.1-0.4,0-0.8,0-1.2
			c0-154.8,0-309.6,0-464.5c0-1.1,0-2.1,0-3.7c4.5,2.2,8.8,4.2,13.1,6.2c32.9,15.8,65.9,31.7,98.9,47.5c1.8,0.9,2.4,1.8,2.4,3.7
			c-0.1,12.5,0,25.1,0,38.1c-8.7-4.2-17-8-25.1-12.1C237.2,106.2,236,105.9,233.8,108.6z M350.7,217.2c-9.1-4.1-17.7-7.9-26.2-11.9
			c-2.1-1-3.4-1-5.2,0.9c-20,21.3-40.1,42.4-60.3,63.5c-1.3,1.3-1.7,2.6-1.7,4.4c0,72.8,0,145.5,0.1,218.3c0,2.7-0.8,3.2-3.3,3.1
			c-5.2-0.2-10.3-0.1-15.5,0c-1.7,0-2.3-0.4-2.1-2.1c0.1-1,0-1.9,0-2.9c0-118.7,0-237.5,0-356.2c0-3.7,0-3.7,3.5-2
			c23.8,11.5,47.7,22.9,71.5,34.3c12.5,6,25.1,12,37.6,18c1,0.5,1.5,0.9,1.5,2.1C350.7,196.7,350.7,206.7,350.7,217.2z"/>
		<path class="st1" d="M350.6,316.7c22.5,6.9,44.9,13.8,67.3,20.9c2.2,0.7,2.4,0.1,2.4-1.8c-0.1-7.9-0.1-15.8,0-23.7
			c0-1.8-0.6-2.7-2.2-3.5c-17.2-7.9-34.4-15.9-51.6-23.9c-6-2.8-11.9-5.6-18.2-8.5c-0.1,1.2-0.1,2.1-0.1,2.9c0,11.4,0,22.8-0.1,34.2
			C348.1,315.3,348.6,316.1,350.6,316.7z"/>
		<path class="st1" d="M417.8,511.8c0.2,0,0.4,0,0.6,0h-15.5C407.9,511.8,412.8,511.8,417.8,511.8z"/>
		<path class="st1" d="M350.6,511.8c3,0,6,0,9.1,0h-9.5C350.3,511.8,350.4,511.8,350.6,511.8z"/>
		<path class="st1" d="M420.3,509.2c-0.1-9.2-0.1-18.3,0-27.5c0-2.2-0.6-2.7-2.8-2.7c-11,0.1-22,0-33,0c-11.3,0-22.6,0-33.9,0
			c-1.9,0-2.5,0.4-2.5,2.4c0.1,9.4,0.1,18.7,0,28.1c0,1.8,0.6,2.3,2.1,2.4h9.5c14.4,0,28.9,0,43.3,0h15.5
			C420,511.6,420.3,510.9,420.3,509.2z"/>
		<path class="st1" d="M350.4,385c22.7,2.6,45.4,5.2,68.1,7.9c1.9,0.2,1.8-0.8,1.7-2c0-5.8,0-11.7,0-17.5c0-6.8,0-6.9-6.5-8.6
			c-21-5.7-42-11.2-63-16.9c-2.4-0.7-2.7,0-2.7,2.2c0.1,5.3,0,10.7,0,16.1c0,5.5,0.1,10.9,0,16.4C348,384.2,348.5,384.8,350.4,385z"
			/>
		<path class="st1" d="M416.9,419.9c-22-1.7-44-3.6-66.1-5.5c-2.2-0.2-2.8,0-2.8,2.4c0.1,9.4,0.1,18.9,0,28.3c0,2.4,0.8,2.8,3,2.8
			c11-0.1,22,0,33,0c11.2,0,22.4-0.1,33.6,0c2,0,2.6-0.5,2.6-2.6c-0.1-7.3-0.2-14.6,0-21.9C420.4,420.6,419.4,420.1,416.9,419.9z"/>
	</g>
	<g>
		<path class="st1" d="M1553.3,153.8v-113h41.1c12.6,0,22.3,2.3,29.1,6.9c6.8,4.6,10.2,11.1,10.2,19.5c0,6.1-2.1,11.4-6.2,16
			c-4.1,4.6-9.4,7.8-15.8,9.5v0.3c8,1,14.5,4,19.3,8.9c4.8,4.9,7.2,11,7.2,18c0,10.4-3.7,18.6-11.1,24.6c-7.4,6.1-17.5,9.1-30.3,9.1
			H1553.3z M1578.7,59.6v26.8h11.2c5.3,0,9.4-1.3,12.4-3.8c3-2.5,4.5-6.1,4.5-10.5c0-8.3-6.2-12.5-18.6-12.5H1578.7z M1578.7,105.3
			v29.8h13.8c5.9,0,10.5-1.4,13.8-4.1c3.3-2.7,5-6.5,5-11.2c0-4.5-1.6-8.1-4.9-10.6c-3.3-2.6-7.9-3.9-13.8-3.9H1578.7z"/>
		<path class="st1" d="M1731,153.8h-24.8v-12.3h-0.4c-6.1,9.5-14.4,14.3-24.7,14.3c-18.7,0-28.1-11.3-28.1-34V73.1h24.8v46.5
			c0,11.4,4.5,17.1,13.6,17.1c4.5,0,8-1.6,10.7-4.7c2.7-3.1,4-7.4,4-12.7V73.1h24.8V153.8z"/>
		<path class="st1" d="M1764.6,60.4c-4.2,0-7.6-1.2-10.3-3.7c-2.7-2.5-4-5.6-4-9.2c0-3.7,1.3-6.8,4-9.1c2.7-2.4,6.1-3.5,10.3-3.5
			c4.3,0,7.7,1.2,10.4,3.5c2.7,2.4,4,5.4,4,9.1c0,3.8-1.3,6.9-4,9.3C1772.3,59.2,1768.8,60.4,1764.6,60.4z M1776.9,153.8H1752V73.1
			h24.9V153.8z"/>
		<path class="st1" d="M1822.7,153.8h-24.9V34.4h24.9V153.8z"/>
		<path class="st1" d="M1922.7,153.8h-24.9v-11.1h-0.3c-5.7,8.7-14,13.1-25,13.1c-10.1,0-18.2-3.6-24.4-10.7
			c-6.1-7.1-9.2-17.1-9.2-29.8c0-13.3,3.4-24,10.2-32.1c6.8-8,15.7-12.1,26.6-12.1c10.4,0,17.7,3.7,21.8,11.2h0.3v-48h24.9V153.8z
			 M1898.2,114.6v-6.1c0-5.3-1.5-9.6-4.6-13.1c-3-3.5-7-5.2-11.9-5.2c-5.5,0-9.8,2.2-12.9,6.5c-3.1,4.3-4.7,10.3-4.7,17.9
			c0,7.1,1.5,12.6,4.5,16.4c3,3.8,7.1,5.8,12.5,5.8c5,0,9.2-2,12.3-6.1C1896.7,126.6,1898.2,121.3,1898.2,114.6z"/>
		<path class="st1" d="M1956.2,60.4c-4.2,0-7.6-1.2-10.3-3.7c-2.7-2.5-4-5.6-4-9.2c0-3.7,1.3-6.8,4-9.1c2.7-2.4,6.1-3.5,10.3-3.5
			c4.3,0,7.7,1.2,10.4,3.5c2.7,2.4,4,5.4,4,9.1c0,3.8-1.3,6.9-4,9.3C1964,59.2,1960.5,60.4,1956.2,60.4z M1968.5,153.8h-24.9V73.1
			h24.9V153.8z"/>
		<path class="st1" d="M2067.5,153.8h-24.8V109c0-12.5-4.5-18.8-13.4-18.8c-4.3,0-7.9,1.7-10.6,5c-2.8,3.3-4.2,7.5-4.2,12.6v46
			h-24.9V73.1h24.9v12.8h0.3c5.9-9.8,14.6-14.7,25.9-14.7c17.9,0,26.8,11.1,26.8,33.3V153.8z"/>
		<path class="st1" d="M2166.3,144.6c0,15-4.3,26.6-13,34.8c-8.7,8.2-21.2,12.3-37.7,12.3c-10.9,0-19.5-1.6-25.9-4.7v-21
			c8.3,4.8,16.7,7.3,25.1,7.3c8.4,0,14.9-2.2,19.5-6.7c4.6-4.4,6.9-10.5,6.9-18.1v-6.4h-0.3c-5.7,9-14.1,13.6-25.1,13.6
			c-10.3,0-18.5-3.6-24.5-10.9c-6-7.3-9.1-17-9.1-29.2c0-13.7,3.4-24.5,10.1-32.5c6.7-8,15.6-12.1,26.6-12.1
			c9.8,0,17.2,3.8,22.1,11.3h0.3v-9.4h24.9V144.6z M2141.7,115.1v-6.4c0-5.1-1.5-9.4-4.5-13c-3-3.6-6.9-5.4-11.8-5.4
			c-5.5,0-9.9,2.2-13,6.5c-3.2,4.3-4.7,10.4-4.7,18.2c0,6.7,1.5,12,4.5,16c3,3.9,7.1,5.9,12.3,5.9c5.1,0,9.3-2,12.5-6
			C2140.1,126.8,2141.7,121.6,2141.7,115.1z"/>
		<path class="st1" d="M1682.1,302.5h-25.1v-67.6c0-7.3,0.3-15.4,0.9-24.2h-0.6c-1.3,6.9-2.5,11.9-3.5,15l-26.5,76.8h-20.8l-27-76.1
			c-0.7-2-1.9-7.3-3.5-15.8h-0.7c0.7,11.1,1,20.9,1,29.3v62.5h-22.9v-113h37.3l23.1,67c1.8,5.4,3.2,10.7,4,16.2h0.5
			c1.4-6.3,2.9-11.7,4.5-16.3l23.1-66.8h36.3V302.5z"/>
		<path class="st1" d="M1772.5,302.5h-23.6v-11.6h-0.3c-5.4,9-13.4,13.6-24,13.6c-7.8,0-14-2.2-18.5-6.7c-4.5-4.4-6.7-10.4-6.7-17.8
			c0-15.7,9.3-24.7,27.8-27.1l21.9-2.9c0-8.8-4.8-13.2-14.3-13.2c-9.6,0-18.8,2.9-27.4,8.6v-18.8c3.5-1.8,8.2-3.4,14.2-4.7
			c6-1.4,11.5-2,16.4-2c23,0,34.5,11.5,34.5,34.4V302.5z M1749.1,269.7v-5.4l-14.7,1.9c-8.1,1.1-12.1,4.7-12.1,11c0,2.8,1,5.2,3,7
			c2,1.8,4.6,2.7,8,2.7c4.7,0,8.5-1.6,11.4-4.8C1747.6,278.7,1749.1,274.6,1749.1,269.7z"/>
		<path class="st1" d="M1870.1,302.5h-24.8v-44.8c0-12.5-4.5-18.8-13.4-18.8c-4.3,0-7.9,1.7-10.6,5c-2.8,3.3-4.2,7.5-4.2,12.6v46
			h-24.9v-80.7h24.9v12.8h0.3c5.9-9.8,14.6-14.7,25.9-14.7c17.9,0,26.8,11.1,26.8,33.3V302.5z"/>
		<path class="st1" d="M1957,302.5h-23.6v-11.6h-0.3c-5.4,9-13.4,13.6-24,13.6c-7.8,0-14-2.2-18.5-6.7c-4.5-4.4-6.7-10.4-6.7-17.8
			c0-15.7,9.3-24.7,27.8-27.1l21.9-2.9c0-8.8-4.8-13.2-14.3-13.2c-9.6,0-18.8,2.9-27.4,8.6v-18.8c3.5-1.8,8.2-3.4,14.2-4.7
			c6-1.4,11.5-2,16.4-2c23,0,34.5,11.5,34.5,34.4V302.5z M1933.6,269.7v-5.4l-14.7,1.9c-8.1,1.1-12.1,4.7-12.1,11c0,2.8,1,5.2,3,7
			c2,1.8,4.6,2.7,8,2.7c4.7,0,8.5-1.6,11.4-4.8C1932.1,278.7,1933.6,274.6,1933.6,269.7z"/>
		<path class="st1" d="M2055.8,293.2c0,15-4.3,26.6-13,34.8c-8.7,8.2-21.2,12.3-37.7,12.3c-10.9,0-19.5-1.6-25.9-4.7v-21
			c8.3,4.8,16.7,7.3,25.1,7.3c8.4,0,14.9-2.2,19.5-6.7c4.6-4.4,6.9-10.5,6.9-18.1v-6.4h-0.3c-5.7,9-14.1,13.6-25.1,13.6
			c-10.3,0-18.5-3.6-24.5-10.9c-6-7.3-9.1-17-9.1-29.2c0-13.7,3.4-24.5,10.1-32.5c6.7-8,15.6-12.1,26.6-12.1
			c9.8,0,17.2,3.8,22.1,11.3h0.3v-9.4h24.9V293.2z M2031.2,263.7v-6.4c0-5.1-1.5-9.4-4.5-13c-3-3.6-6.9-5.4-11.8-5.4
			c-5.5,0-9.9,2.2-13,6.5c-3.2,4.3-4.7,10.4-4.7,18.2c0,6.7,1.5,12,4.5,16c3,3.9,7.1,5.9,12.3,5.9c5.1,0,9.3-2,12.5-6
			C2029.6,275.4,2031.2,270.2,2031.2,263.7z"/>
		<path class="st1" d="M2149.1,269.2h-52.6c0.8,11.7,8.2,17.6,22.1,17.6c8.9,0,16.7-2.1,23.4-6.3v18c-7.5,4-17.2,6-29.1,6
			c-13,0-23.1-3.6-30.3-10.8c-7.2-7.2-10.8-17.3-10.8-30.2c0-13.4,3.9-24,11.7-31.8c7.8-7.8,17.3-11.7,28.7-11.7
			c11.8,0,20.9,3.5,27.3,10.5c6.4,7,9.7,16.5,9.7,28.5V269.2z M2126,253.9c0-11.6-4.7-17.3-14-17.3c-4,0-7.4,1.7-10.4,5
			c-2.9,3.3-4.7,7.4-5.3,12.4H2126z"/>
		<path class="st1" d="M2292.1,302.5h-24.8v-46c0-11.7-4.3-17.6-12.9-17.6c-4.1,0-7.4,1.8-10,5.3c-2.6,3.5-3.9,7.9-3.9,13.2v45.2
			h-24.9V256c0-11.4-4.2-17.1-12.7-17.1c-4.3,0-7.7,1.7-10.2,5c-2.5,3.4-3.8,7.9-3.8,13.7v44.8h-24.9v-80.7h24.9v12.6h0.3
			c2.6-4.3,6.2-7.8,10.8-10.5c4.6-2.7,9.7-4.1,15.2-4.1c11.4,0,19.2,5,23.4,15.1c6.1-10,15.2-15.1,27.1-15.1
			c17.5,0,26.3,10.8,26.3,32.5V302.5z"/>
		<path class="st1" d="M2384.3,269.2h-52.6c0.8,11.7,8.2,17.6,22.1,17.6c8.9,0,16.7-2.1,23.4-6.3v18c-7.5,4-17.2,6-29.1,6
			c-13,0-23.1-3.6-30.3-10.8c-7.2-7.2-10.8-17.3-10.8-30.2c0-13.4,3.9-24,11.7-31.8c7.8-7.8,17.3-11.7,28.7-11.7
			c11.8,0,20.9,3.5,27.3,10.5c6.4,7,9.7,16.5,9.7,28.5V269.2z M2361.2,253.9c0-11.6-4.7-17.3-14-17.3c-4,0-7.4,1.7-10.4,5
			c-2.9,3.3-4.7,7.4-5.3,12.4H2361.2z"/>
		<path class="st1" d="M2477,302.5h-24.8v-44.8c0-12.5-4.5-18.8-13.4-18.8c-4.3,0-7.9,1.7-10.6,5c-2.8,3.3-4.2,7.5-4.2,12.6v46
			h-24.9v-80.7h24.9v12.8h0.3c5.9-9.8,14.6-14.7,25.9-14.7c17.9,0,26.8,11.1,26.8,33.3V302.5z"/>
		<path class="st1" d="M2545.5,301.5c-3.7,1.9-9.2,2.9-16.6,2.9c-17.5,0-26.3-9.1-26.3-27.3v-37h-13.1v-18.4h13.1v-17.4l24.8-7.1
			v24.5h18.1v18.4h-18.1v32.6c0,8.4,3.3,12.6,10,12.6c2.6,0,5.3-0.8,8.1-2.3V301.5z"/>
		<path class="st1" d="M1548.1,446.7v-25.2c4.6,3.8,9.5,6.7,14.9,8.6c5.4,1.9,10.8,2.9,16.2,2.9c3.2,0,6-0.3,8.4-0.9
			c2.4-0.6,4.4-1.4,6-2.4c1.6-1,2.8-2.2,3.6-3.6c0.8-1.4,1.2-2.9,1.2-4.5c0-2.2-0.6-4.2-1.9-5.9c-1.3-1.7-3-3.3-5.2-4.8
			c-2.2-1.5-4.8-2.9-7.8-4.3c-3-1.4-6.2-2.8-9.7-4.2c-8.8-3.7-15.4-8.2-19.7-13.5c-4.3-5.3-6.5-11.7-6.5-19.2
			c0-5.9,1.2-10.9,3.5-15.2c2.4-4.2,5.6-7.7,9.7-10.4c4.1-2.7,8.8-4.7,14.1-6c5.4-1.3,11-1.9,17-1.9c5.9,0,11.1,0.4,15.6,1.1
			c4.5,0.7,8.7,1.8,12.6,3.3v23.6c-1.9-1.3-4-2.5-6.2-3.5c-2.2-1-4.5-1.8-6.9-2.5c-2.4-0.7-4.7-1.1-7.1-1.5
			c-2.3-0.3-4.6-0.5-6.7-0.5c-2.9,0-5.5,0.3-7.9,0.8c-2.4,0.6-4.4,1.3-6,2.3c-1.6,1-2.9,2.2-3.8,3.6c-0.9,1.4-1.3,3-1.3,4.7
			c0,1.9,0.5,3.6,1.5,5.1c1,1.5,2.4,2.9,4.3,4.3c1.8,1.3,4.1,2.7,6.7,3.9c2.6,1.3,5.6,2.6,8.9,4c4.5,1.9,8.6,3.9,12.2,6
			c3.6,2.1,6.7,4.5,9.3,7.2c2.6,2.7,4.5,5.7,5.9,9.2c1.4,3.4,2,7.4,2,12c0,6.3-1.2,11.6-3.6,15.9c-2.4,4.3-5.6,7.8-9.7,10.4
			c-4.1,2.7-8.9,4.6-14.3,5.7c-5.4,1.2-11.2,1.7-17.2,1.7c-6.2,0-12.1-0.5-17.7-1.6C1557,450.4,1552.2,448.8,1548.1,446.7z"/>
		<path class="st1" d="M1718.2,370.4l-32.8,87.2c-7.9,21-19.8,31.4-35.6,31.4c-6,0-11-0.7-14.9-2v-19.9c3.3,1.9,6.9,2.9,10.8,2.9
			c6.4,0,10.9-3,13.4-9.1l4.3-10l-32.8-80.5h27.6l15.1,49.1c0.9,3,1.7,6.6,2.2,10.8h0.3c0.5-3,1.3-6.6,2.6-10.6l15.2-49.3H1718.2z"
			/>
		<path class="st1" d="M1722.9,449v-20.2c4.1,2.5,8.2,4.3,12.3,5.5c4.1,1.2,7.9,1.8,11.5,1.8c4.4,0,7.9-0.6,10.4-1.8
			c2.5-1.2,3.8-3,3.8-5.5c0-1.6-0.6-2.9-1.7-3.9c-1.2-1.1-2.6-2-4.5-2.8c-1.8-0.8-3.8-1.5-6-2.1c-2.2-0.6-4.2-1.3-6.2-2.1
			c-3.2-1.2-6-2.5-8.5-3.9c-2.4-1.4-4.5-3-6.1-4.8c-1.7-1.8-2.9-4-3.8-6.4s-1.3-5.3-1.3-8.6c0-4.5,1-8.4,3-11.7c2-3.3,4.6-5.9,7.9-8
			c3.3-2.1,7-3.6,11.3-4.6c4.2-1,8.6-1.5,13.2-1.5c3.6,0,7.2,0.3,10.9,0.8c3.7,0.6,7.3,1.4,10.9,2.4v19.2c-3.2-1.8-6.5-3.2-10.1-4.1
			c-3.6-0.9-7.1-1.4-10.6-1.4c-1.6,0-3.2,0.1-4.6,0.4c-1.4,0.3-2.7,0.7-3.8,1.3c-1.1,0.6-2,1.3-2.6,2.1c-0.6,0.9-0.9,1.9-0.9,3
			c0,1.5,0.5,2.7,1.4,3.8c0.9,1.1,2.2,2,3.7,2.7c1.5,0.8,3.2,1.4,5.1,2c1.9,0.6,3.7,1.2,5.6,1.9c3.3,1.2,6.3,2.4,9,3.8
			c2.7,1.4,5,3,6.9,4.8c1.9,1.8,3.4,4,4.4,6.5c1,2.5,1.5,5.4,1.5,8.8c0,4.8-1,8.9-3.1,12.3c-2.1,3.4-4.8,6.1-8.3,8.3
			c-3.4,2.1-7.4,3.7-11.9,4.7c-4.5,1-9.2,1.5-14,1.5C1738.7,453.1,1730.5,451.7,1722.9,449z"/>
		<path class="st1" d="M1848,450.1c-3.7,1.9-9.2,2.9-16.6,2.9c-17.5,0-26.3-9.1-26.3-27.3v-37h-13.1v-18.4h13.1V353l24.8-7.1v24.5
			h18.1v18.4h-18.1v32.6c0,8.4,3.3,12.6,10,12.6c2.6,0,5.3-0.8,8.1-2.3V450.1z"/>
		<path class="st1" d="M1934.5,417.8h-52.6c0.8,11.7,8.2,17.6,22.1,17.6c8.9,0,16.7-2.1,23.4-6.3v18c-7.5,4-17.2,6-29.1,6
			c-13,0-23.1-3.6-30.3-10.8c-7.2-7.2-10.8-17.3-10.8-30.2c0-13.4,3.9-24,11.7-31.8c7.8-7.8,17.3-11.7,28.7-11.7
			c11.8,0,20.9,3.5,27.3,10.5c6.4,7,9.7,16.5,9.7,28.5V417.8z M1911.4,402.5c0-11.6-4.7-17.3-14-17.3c-4,0-7.4,1.7-10.4,5
			c-2.9,3.3-4.7,7.4-5.3,12.4H1911.4z"/>
		<path class="st1" d="M2077.5,451.1h-24.8v-46c0-11.7-4.3-17.6-12.9-17.6c-4.1,0-7.4,1.8-10,5.3c-2.6,3.5-3.9,7.9-3.9,13.2v45.2
			h-24.9v-46.5c0-11.4-4.2-17.1-12.7-17.1c-4.3,0-7.7,1.7-10.2,5c-2.5,3.4-3.8,7.9-3.8,13.7v44.8h-24.9v-80.7h24.9V383h0.3
			c2.6-4.3,6.2-7.8,10.8-10.5c4.7-2.7,9.7-4.1,15.3-4.1c11.4,0,19.2,5,23.4,15.1c6.1-10,15.2-15.1,27.1-15.1
			c17.5,0,26.3,10.8,26.3,32.5V451.1z"/>
	</g>
	<g>
		<path class="st1" d="M1149.3,20.4L1023,498.3H903.7l-79.3-306.6c-4.2-16-6.8-33.9-7.7-53.7h-1.3c-2,21.8-4.9,39.7-8.7,53.7
			l-81.3,306.6H601.1L475.4,20.4h117.6l67.3,318.3c2.9,13.6,5,31.8,6.3,54.7h2c0.9-17.1,4.1-35.8,9.7-56L765,20.4h115.3l78.3,320.9
			c2.9,11.8,5.4,28.9,7.7,51.3h1.3c0.9-17.5,3.2-35.3,7-53.3l66-318.9H1149.3z"/>
		<path class="st1" d="M1188,480V373.3c19.3,16.2,40.3,28.4,63,36.5c22.7,8.1,45.5,12.2,68.7,12.2c13.5,0,25.4-1.2,35.5-3.7
			c10.1-2.4,18.5-5.8,25.3-10.2c6.8-4.3,11.8-9.4,15.2-15.3c3.3-5.9,5-12.3,5-19.2c0-9.3-2.7-17.7-8-25
			c-5.3-7.3-12.6-14.1-21.8-20.3c-9.2-6.2-20.2-12.2-32.8-18c-12.7-5.8-26.3-11.7-41-17.7c-37.3-15.5-65.2-34.5-83.5-57
			c-18.3-22.4-27.5-49.5-27.5-81.3c0-24.9,5-46.3,15-64.2c10-17.9,23.6-32.6,40.8-44.2c17.2-11.5,37.2-20,59.8-25.5
			c22.7-5.4,46.7-8.2,72-8.2c24.9,0,46.9,1.5,66.2,4.5c19.2,3,36.9,7.6,53.2,13.8v99.6c-8-5.6-16.7-10.4-26.2-14.7
			c-9.4-4.2-19.2-7.7-29.2-10.5c-10-2.8-19.9-4.8-29.8-6.2c-9.9-1.3-19.3-2-28.2-2c-12.2,0-23.3,1.2-33.3,3.5
			c-10,2.3-18.4,5.6-25.3,9.8c-6.9,4.2-12.2,9.3-16,15.2c-3.8,5.9-5.7,12.5-5.7,19.8c0,8,2.1,15.2,6.3,21.5c4.2,6.3,10.2,12.3,18,18
			c7.8,5.7,17.2,11.2,28.3,16.7c11.1,5.4,23.7,11.1,37.7,16.8c19.1,8,36.3,16.5,51.5,25.5c15.2,9,28.3,19.2,39.2,30.5
			c10.9,11.3,19.2,24.3,25,38.8c5.8,14.6,8.7,31.5,8.7,50.8c0,26.7-5.1,49-15.2,67.2c-10.1,18.1-23.8,32.8-41.2,44
			c-17.3,11.2-37.5,19.3-60.5,24.2c-23,4.9-47.3,7.3-72.8,7.3c-26.2,0-51.2-2.2-74.8-6.7C1225.8,495.5,1205.3,488.9,1188,480z"/>
	</g>
</g>
</svg>
